{
	"asset":{
		"generator":"Khronos glTF Blender I/O v4.2.57",
		"version":"2.0"
	},
	"extensionsUsed":[
		"KHR_materials_transmission"
	],
	"scene":0,
	"scenes":[
		{
			"name":"Scene",
			"nodes":[
				0,
				1
			]
		}
	],
	"nodes":[
		{
			"mesh":0,
			"name":"maze"
		},
		{
			"mesh":1,
			"name":"glass"
		}
	],
	"materials":[
		{
			"doubleSided":true,
			"name":"maze",
			"pbrMetallicRoughness":{
				"baseColorFactor":[
					0.30518263578414917,
					0.4484556317329407,
					0.8021063208580017,
					1
				],
				"metallicFactor":0,
				"roughnessFactor":0.5
			}
		},
		{
			"alphaMode":"BLEND",
			"doubleSided":true,
			"extensions":{
				"KHR_materials_transmission":{
					"transmissionFactor":1
				}
			},
			"name":"glass",
			"pbrMetallicRoughness":{
				"baseColorFactor":[
					0.800000011920929,
					0.800000011920929,
					0.800000011920929,
					0.6600000262260437
				],
				"metallicFactor":0,
				"roughnessFactor":0.20000000298023224
			}
		}
	],
	"meshes":[
		{
			"name":"Cube.006",
			"primitives":[
				{
					"attributes":{
						"POSITION":0,
						"NORMAL":1,
						"TEXCOORD_0":2
					},
					"indices":3,
					"material":0
				}
			]
		},
		{
			"name":"Cube.001",
			"primitives":[
				{
					"attributes":{
						"POSITION":4,
						"NORMAL":5,
						"TEXCOORD_0":6
					},
					"indices":7,
					"material":1
				}
			]
		}
	],
	"accessors":[
		{
			"bufferView":0,
			"componentType":5126,
			"count":47432,
			"max":[
				1.5775870084762573,
				1.5652656555175781,
				1.5775444507598877
			],
			"min":[
				-1.5776011943817139,
				-1.5652530193328857,
				-1.5775870084762573
			],
			"type":"VEC3"
		},
		{
			"bufferView":1,
			"componentType":5126,
			"count":47432,
			"type":"VEC3"
		},
		{
			"bufferView":2,
			"componentType":5126,
			"count":47432,
			"type":"VEC2"
		},
		{
			"bufferView":3,
			"componentType":5123,
			"count":258096,
			"type":"SCALAR"
		},
		{
			"bufferView":4,
			"componentType":5126,
			"count":2170,
			"max":[
				1.6481722593307495,
				1.6376876831054688,
				1.6481722593307495
			],
			"min":[
				-1.6481722593307495,
				-1.6376878023147583,
				-1.6481722593307495
			],
			"type":"VEC3"
		},
		{
			"bufferView":5,
			"componentType":5126,
			"count":2170,
			"type":"VEC3"
		},
		{
			"bufferView":6,
			"componentType":5126,
			"count":2170,
			"type":"VEC2"
		},
		{
			"bufferView":7,
			"componentType":5123,
			"count":10752,
			"type":"SCALAR"
		}
	],
	"bufferViews":[
		{
			"buffer":0,
			"byteLength":569184,
			"byteOffset":0,
			"target":34962
		},
		{
			"buffer":0,
			"byteLength":569184,
			"byteOffset":569184,
			"target":34962
		},
		{
			"buffer":0,
			"byteLength":379456,
			"byteOffset":1138368,
			"target":34962
		},
		{
			"buffer":0,
			"byteLength":516192,
			"byteOffset":1517824,
			"target":34963
		},
		{
			"buffer":0,
			"byteLength":26040,
			"byteOffset":2034016,
			"target":34962
		},
		{
			"buffer":0,
			"byteLength":26040,
			"byteOffset":2060056,
			"target":34962
		},
		{
			"buffer":0,
			"byteLength":17360,
			"byteOffset":2086096,
			"target":34962
		},
		{
			"buffer":0,
			"byteLength":21504,
			"byteOffset":2103456,
			"target":34963
		}
	],
	"buffers":[
		{
			"byteLength":2124960,
			"uri":"ballMaze.bin"
		}
	]
}
